<svg xmlns="http://www.w3.org/2000/svg" xmlns:xlink="http://www.w3.org/1999/xlink" id="Layer_1" x="0px" y="0px" viewBox="0 0 62 62" style="enable-background:new 0 0 62 62;" xml:space="preserve"><style type="text/css">	.st0{fill:#FFFFFF;}	.st1{opacity:0.21;}	.st2{fill:#1D1C1A;}	.st3{fill:#E63D33;}	.st4{fill:#AE202B;}	.st5{fill:#FFF7F7;}	.st6{opacity:0.1;}	.st7{fill:#7393CB;}	.st8{fill:#1C1C1A;}	.st9{fill:#E53E33;}	.st10{fill:#AD202B;}	.st11{opacity:0.1;fill:#AD202B;}	.st12{fill:#C22329;}	.st13{opacity:0.1;fill:#C22329;}	.st14{fill:#FDF6F6;}	.st15{clip-path:url(#SVGID_4_);}	.st16{fill:#DDE8F4;}	.st17{display:none;fill:none;stroke:#1C1C1A;stroke-width:2;stroke-miterlimit:10;}	.st18{fill:#FDF6F6;stroke:#1C1C1A;stroke-width:0.5;stroke-miterlimit:10;}	.st19{fill:none;stroke:#1C1C1A;stroke-miterlimit:10;}	.st20{fill:#F7E3E2;}	.st21{opacity:0.21;fill:#1C1C1A;}	.st22{fill:#C32228;}	.st23{fill:#FFF7F7;stroke:#1C1C1A;stroke-width:0.15;stroke-miterlimit:10;}	.st24{fill:#C0252A;}	.st25{fill:#0B1C2B;}	.st26{opacity:0.1;fill:#1C1C1A;}	.st27{fill:#696969;}	.st28{fill:#FFF7F7;stroke:#1C1C1A;stroke-width:0.5;stroke-miterlimit:10;}	.st29{fill:none;}	.st30{fill:#FFF8F9;stroke:#1D1C1A;stroke-width:0.25;stroke-miterlimit:10;}	.st31{fill:#E63D32;}	.st32{clip-path:url(#SVGID_12_);}	.st33{fill:#E63D32;stroke:#1D1C1A;stroke-width:0.5;stroke-miterlimit:10;}	.st34{fill:#E63D34;}	.st35{fill:#2E2E2E;}	.st36{fill:#AA202B;}	.st37{clip-path:url(#SVGID_16_);}	.st38{fill:#FFF8F9;}	.st39{fill:#231F20;}	.st40{fill:#242A3C;}	.st41{clip-path:url(#SVGID_20_);}	.st42{clip-path:url(#SVGID_22_);}	.st43{clip-path:url(#SVGID_24_);fill:#1D1C1A;}	.st44{clip-path:url(#SVGID_26_);}	.st45{clip-path:url(#SVGID_28_);fill:#1D1C1A;}	.st46{fill:#FFFFFF;stroke:#1D1C1A;stroke-width:0.5;stroke-miterlimit:10;}	.st47{fill:#D7E0E5;}	.st48{opacity:0.5;fill:#D7E0E5;}	.st49{clip-path:url(#SVGID_32_);}	.st50{fill:#F6F7F7;stroke:#1C1C1A;stroke-width:0.5;stroke-miterlimit:10;}	.st51{fill:#FFFFFF;stroke:#231F20;stroke-width:0.5;stroke-miterlimit:10;}	.st52{fill:#D8E0E6;stroke:#1D1C1A;stroke-width:0.5;stroke-miterlimit:10;}	.st53{fill:none;stroke:#CDCA87;stroke-width:0.5;stroke-miterlimit:10;}	.st54{clip-path:url(#SVGID_34_);}	.st55{clip-path:url(#SVGID_36_);fill:#1D1C1A;}	.st56{clip-path:url(#SVGID_38_);}	.st57{clip-path:url(#SVGID_40_);fill:#1D1C1A;}	.st58{opacity:0.1;fill:#1D1C1A;}	.st59{clip-path:url(#SVGID_44_);}	.st60{clip-path:url(#SVGID_46_);fill:#1D1C1A;}	.st61{clip-path:url(#SVGID_48_);}	.st62{clip-path:url(#SVGID_50_);fill:#1D1C1A;}	.st63{clip-path:url(#SVGID_54_);}	.st64{clip-path:url(#SVGID_56_);}	.st65{clip-path:url(#SVGID_58_);fill:#1D1C1A;}	.st66{clip-path:url(#SVGID_60_);}	.st67{clip-path:url(#SVGID_62_);fill:#1D1C1A;}	.st68{clip-path:url(#SVGID_66_);}	.st69{clip-path:url(#SVGID_68_);fill:#1D1C1A;}	.st70{clip-path:url(#SVGID_70_);}	.st71{clip-path:url(#SVGID_72_);fill:#1D1C1A;}	.st72{clip-path:url(#SVGID_76_);}	.st73{clip-path:url(#SVGID_78_);}	.st74{clip-path:url(#SVGID_80_);fill:#1D1C1A;}	.st75{clip-path:url(#SVGID_82_);}	.st76{clip-path:url(#SVGID_84_);fill:#1D1C1A;}	.st77{clip-path:url(#SVGID_88_);}	.st78{fill:#FDF6F6;stroke:#1C1C1A;stroke-width:0.25;stroke-miterlimit:10;}	.st79{clip-path:url(#SVGID_92_);}	.st80{clip-path:url(#SVGID_94_);}</style><g>	<g>		<g>			<g>				<g>					<path class="st10" d="M48.4,23l0.7-0.1c0,0-0.1-1.2,0.3-1.5c0.4,0,1.8,0.2,2,0.4c0.2,0.2,0.5,0.7,0.4,1.1      c-0.1,0.3-1.4,0.5-2.1,0.5c-0.7,0-1.1,0.1-1.1,0.1"></path>					<path class="st11" d="M48.4,23l0.7-0.1c0,0-0.1-1.2,0.3-1.5c0.4,0,1.8,0.2,2,0.4c0.2,0.2,0.5,0.7,0.4,1.1      c-0.1,0.3-1.4,0.5-2.1,0.5c-0.7,0-1.1,0.1-1.1,0.1"></path>				</g>			</g>			<path class="st31" d="M36.7,38.3l7-0.1c0,0,0.9-0.1,1.4,0.1s6.3-0.6,6.3-0.6l0.1,0.1c0,0,0.5,0.2,0.7-0.5c1-7-0.1-10.6-0.2-11    C52,26,50.6,25,50.2,24.8c-0.4-0.2-1.3-1-1.3-1s-0.2-0.3-0.5-1.1c-0.3-0.7-2-5.2-3.6-5.6c-1.5-0.4-5.7-0.8-7.6-0.8    c-0.3,0-0.6,0-0.9,0c-1.9,0-6.2,0.3-7.7,0.8c-1.6,0.5-3.4,4.9-3.6,5.6c-0.3,0.7-0.5,1.1-0.5,1.1s-0.9,0.8-1.3,1s-1.9,1.2-1.9,1.6    c-0.1,0.3-1.2,4-0.2,11c0.2,0.7,0.7,0.5,0.7,0.5l0.1-0.1c0,0,5.9,0.7,6.3,0.6c0.5-0.2,1.4-0.1,1.4-0.1L36.7,38.3z"></path>			<path class="st10" d="M51.4,34.8c0,0-5.9,0.6-6.4,0.7c-0.7,0.1-1.3,0.2-1.3,0.2l-7,0.1l-7-0.1c0,0-3.4-0.6-3.9-0.5    c-0.5,0.2-3.6-0.3-3.6-0.3s-1.4-3.1-1.4-4.3c-0.1,1.7,0,4,0.4,6.8c0.3,0.2,0.8,0.4,0.8,0.4s5.9,0.7,6.3,0.6    c0.5-0.2,1.4-0.1,1.4-0.1l7,0.1l7-0.1c0,0,0.9-0.1,1.4,0.1c0.5,0.2,6.3-0.6,6.3-0.6s0.3,0,0.8-0.4c0.4-2.8,0.5-5.1,0.4-6.8    C52.6,31.8,51.4,34.8,51.4,34.8z"></path>			<path class="st5" d="M22.1,26.7c0,0-0.7,2.1,0.4,2.7c0.9,0.5,1.2,0.5,1.2,0.5l0.9-0.3c0,0,2,0.6,2.8,0.5c0.8-0.1,1.5-0.6,1.5-0.6    S27.7,27.7,22.1,26.7z"></path>			<path class="st8" d="M21.3,37.5c0,0,0.1,2.3,0.9,2.3c0.8,0,2.8,0.1,3,0c0.2-0.1,0.7-0.5,0.7-1.6"></path>			<path class="st5" d="M51.4,26.7c0,0,0.7,2.1-0.4,2.7c-0.9,0.5-1.2,0.5-1.2,0.5L49,29.6c0,0-2,0.6-2.8,0.5    c-0.8-0.1-1.5-0.6-1.5-0.6S45.8,27.7,51.4,26.7z"></path>			<path class="st8" d="M52.2,37.5c0,0-0.1,2.3-0.9,2.3s-2.8,0.1-3,0c-0.2-0.1-0.7-0.5-0.7-1.6"></path>			<path class="st8" d="M28.1,18.1h17.3c0,0-0.3-0.4-0.7-1c-1.6-0.4-5.6-0.8-7.5-0.7c-0.3,0-0.6,0-0.9,0c-1.9,0-5.9,0.3-7.5,0.7    C28.6,17.4,28.3,17.7,28.1,18.1z"></path>			<path class="st5" d="M48.1,23.7c-0.2-1.1-1.9-4.9-2.9-5.7c-0.8-0.1-3.1-0.3-5.1-0.4c-2.2-0.2-4.5-0.2-6.7,0c-2,0.1-4.2,0.3-5,0.4    c-1,0.8-2.6,4.8-2.8,5.9c0.7,0,11.2-0.1,11.2-0.1"></path>		</g>		<g>			<path class="st8" d="M42.5,31.3h-11c-0.1,0-0.3-0.1-0.3-0.3v-0.1c0-0.1,0.1-0.2,0.3-0.2h11c0.1,0,0.2,0.1,0.2,0.2V31    C42.8,31.1,42.7,31.3,42.5,31.3z"></path>			<path class="st8" d="M42.3,32.6H31.7c-0.1,0-0.3-0.1-0.3-0.3v-0.1c0-0.1,0.1-0.3,0.3-0.3h10.6c0.1,0,0.2,0.1,0.2,0.3v0.1    C42.5,32.4,42.4,32.6,42.3,32.6z"></path>			<path class="st8" d="M42,33.9h-10c-0.1,0-0.2-0.1-0.2-0.2v-0.1c0-0.1,0.1-0.2,0.2-0.2h10c0.1,0,0.3,0.1,0.3,0.2v0.1    C42.3,33.7,42.1,33.9,42,33.9z"></path>		</g>	</g>	<g>		<g class="st1">			<path d="M37.3,24.3H9.5c-0.1,0-0.2,0.1-0.2,0.2v2.7h0.6v0v1.7v11.9v0.1v2.8c0,0.1,0.1,0.2,0.2,0.2h26.8c0.1,0,0.2-0.1,0.2-0.2    v-2.8v-0.1V28.9v-1.7l-1.2,0h1.5c0.1,0,0.2-0.1,0.2-0.2v-2.4C37.5,24.4,37.4,24.3,37.3,24.3z"></path>			<path d="M16.8,23.6h-1.4V21c0-0.1-0.1-0.2-0.2-0.2h-2c-0.1,0-0.2,0.1-0.2,0.2v2.6h-1.4v0.7h5.3V23.6z"></path>			<path d="M34.4,23.6H33V21c0-0.1-0.1-0.2-0.2-0.2h-2c-0.1,0-0.2,0.1-0.2,0.2v2.6h-1.4v0.7h5.3V23.6z"></path>		</g>		<g>			<rect x="14.3" y="22" class="st31" width="2.6" height="2.9"></rect>			<rect x="32" y="22" class="st8" width="2.6" height="2.9"></rect>			<rect x="11.3" y="28.5" class="st5" width="26.8" height="14.1"></rect>			<rect x="10.5" y="42.5" class="st8" width="28.4" height="3.1"></rect>			<rect x="11.3" y="28.5" class="st6" width="27" height="1.8"></rect>			<rect x="10.5" y="25.5" class="st8" width="28.3" height="3"></rect>			<g>				<circle class="st8" cx="32.8" cy="36.3" r="2.9"></circle>				<circle class="st8" cx="16.6" cy="36.3" r="2.9"></circle>									<rect x="31.1" y="35.8" transform="matrix(-1 -4.570756e-11 4.570756e-11 -1 65.7478 72.497)" class="st5" width="3.6" height="0.8"></rect>				<polygon class="st5" points="14.8,35.8 16.2,35.8 16.2,34.4 17,34.4 17,35.8 18.5,35.8 18.5,36.7 17,36.7 17,38.1 16.2,38.1      16.2,36.7 14.8,36.7     "></polygon>				<polygon class="st31" points="24.2,32.8 26,32.8 24.3,35.6 26,35.6 23.4,39.6 24.4,36.1 23,36.1     "></polygon>			</g>			<rect x="12.8" y="24.8" class="st8" width="5.5" height="0.7"></rect>			<rect x="30.5" y="24.8" class="st8" width="5.5" height="0.7"></rect>		</g>	</g></g></svg>