<svg xmlns="http://www.w3.org/2000/svg" viewBox="0 0 64 64" data-name="Secure Transactions"><path fill="#db0000" d="m56 4h-48c-3.31 0-6 2.69-6 6v30c0 3.31 2.69 6 6 6h7c.55 0 1-.45 1-1s-.45-1-1-1h-7c-2.21 0-4-1.79-4-4v-16h56v16c0 2.21-1.79 4-4 4h-7c-.55 0-1 .45-1 1s.45 1 1 1h7c3.31 0 6-2.69 6-6v-30c0-3.31-2.69-6-6-6zm-52 8v-2c0-2.21 1.79-4 4-4h48c2.21 0 4 1.79 4 4v2z"></path><path fill="#db0000" d="m15 38h-6c-.55 0-1-.45-1-1s.45-1 1-1h6c.55 0 1 .45 1 1s-.45 1-1 1z"></path><path fill="#db0000" d="m19 33h-10c-.55 0-1-.45-1-1s.45-1 1-1h10c.55 0 1 .45 1 1s-.45 1-1 1z"></path><circle fill="#db0000" cx="52" cy="35" r="4"></circle><path fill="#db0000" d="m41 40h-1v-4c0-4.41-3.59-8-8-8s-8 3.59-8 8v4h-1c-2.76 0-5 2.24-5 5v10c0 2.76 2.24 5 5 5h18c2.76 0 5-2.24 5-5v-10c0-2.76-2.24-5-5-5zm-8 10.82v3.18c0 .55-.45 1-1 1s-1-.45-1-1v-3.18c-1.16-.41-2-1.51-2-2.82 0-1.65 1.35-3 3-3s3 1.35 3 3c0 1.3-.84 2.4-2 2.82zm5-10.82h-12v-4c0-3.31 2.69-6 6-6s6 2.69 6 6z"></path></svg>