<svg xmlns="http://www.w3.org/2000/svg" xmlns:xlink="http://www.w3.org/1999/xlink" x="0px" y="0px" viewBox="0 0 512 512" style="enable-background:new 0 0 512 512;" xml:space="preserve"><g>	<g>		<path fill="#db0000" d="M271,30.76V15c0-8.291-6.709-15-15-15c-8.291,0-15,6.709-15,15v15.76C107.384,38.591,0,150.453,0,286   c0,6.606,4.321,12.437,10.649,14.355c6.299,1.904,13.169-0.542,16.831-6.035c10.781-16.157,29.096-25.43,48.52-25.43   s36.738,9.272,47.52,25.43c5.566,8.35,19.395,8.35,24.961,0c10.781-16.157,28.096-25.43,47.52-25.43   c18.1,0,34.142,8.315,45,22.487V452c0,16.538-13.462,30-30,30c-16.538,0-30-13.462-30-30v-15c0-8.291-6.709-15-15-15   c-8.291,0-15,6.709-15,15v15c0,33.091,26.909,60,60,60s60-26.909,60-60V291.378c10.858-14.172,26.9-22.487,45-22.487   c19.424,0,36.738,9.272,47.52,25.43c5.566,8.35,19.395,8.35,24.961,0c10.781-16.157,29.096-25.43,48.52-25.43   c19.424,0,36.738,9.272,47.52,25.43c3.755,5.614,10.668,7.921,16.831,6.035C507.679,298.437,512,292.606,512,286   C512,150.453,404.616,38.591,271,30.76z"></path>	</g></g><g></g><g></g><g></g><g></g><g></g><g></g><g></g><g></g><g></g><g></g><g></g><g></g><g></g><g></g><g></g></svg>